# xmcd
#
# Track frame offsets:
# 150
# 26025
# 56577
# 75941
# 104886
# 134933
# 155622
# 176560
# 195692
# 224716
# 235143
#
# Disc length: 3588 seconds
#
#
# Revision: 3
# Processed by: cddbd v1.5.2PL0 Copyright (c) Steve Scherf et al.
# Submitted via: FreeRIP 2.945 
#
DISCID=a50e020b
DTITLE=Seu Jorge - América Brasil
DYEAR=2007
DGENRE=Pop
TTITLE0=América Do Norte
TTITLE1=Trabalhador
TTITLE2=Burguesinha
TTITLE3=Cuidar De Mim
TTITLE4=Mina Do Concomínio
TTITLE5=Mariana
TTITLE6=Só No Chat
TTITLE7=Samba Rock
TTITLE8=Seu Olhar
TTITLE9=Eterna Busca
TTITLE10=Voz Da Massa
EXTD=brinde sagatiba
EXTT0=
EXTT1=
EXTT2=
EXTT3=
EXTT4=
EXTT5=
EXTT6=
EXTT7=
EXTT8=
EXTT9=
EXTT10=
PLAYORDER=
